<?xml version="1.0" encoding="UTF-8"?>
<svg id="Layer_2" data-name="Layer 2" xmlns="http://www.w3.org/2000/svg" viewBox="0 0 1920 1080">
  <defs>
    <style>
      .cls-1 {
        fill: #fff;
      }

      .cls-2 {
        fill: #181c1e;
      }
    </style>
  </defs>
  <g id="Layer_1-2" data-name="Layer 1">
    <rect class="cls-2" width="1920" height="1080"/>
    <g>
      <circle class="cls-1" cx="184.5" cy="259.5" r="3"/>
      <path d="m184.5,257c1.38,0,2.5,1.12,2.5,2.5s-1.12,2.5-2.5,2.5-2.5-1.12-2.5-2.5,1.12-2.5,2.5-2.5m0-1c-1.93,0-3.5,1.57-3.5,3.5s1.57,3.5,3.5,3.5,3.5-1.57,3.5-3.5-1.57-3.5-3.5-3.5h0Z"/>
    </g>
    <g>
      <circle class="cls-1" cx="419.5" cy="562.5" r="3"/>
      <path d="m419.5,560c1.38,0,2.5,1.12,2.5,2.5s-1.12,2.5-2.5,2.5-2.5-1.12-2.5-2.5,1.12-2.5,2.5-2.5m0-1c-1.93,0-3.5,1.57-3.5,3.5s1.57,3.5,3.5,3.5,3.5-1.57,3.5-3.5-1.57-3.5-3.5-3.5h0Z"/>
    </g>
    <g>
      <circle class="cls-1" cx="166.5" cy="601.5" r="3"/>
      <path d="m166.5,599c1.38,0,2.5,1.12,2.5,2.5s-1.12,2.5-2.5,2.5-2.5-1.12-2.5-2.5,1.12-2.5,2.5-2.5m0-1c-1.93,0-3.5,1.57-3.5,3.5s1.57,3.5,3.5,3.5,3.5-1.57,3.5-3.5-1.57-3.5-3.5-3.5h0Z"/>
    </g>
    <g>
      <circle class="cls-1" cx="817.5" cy="160.5" r="3"/>
      <path d="m817.5,158c1.38,0,2.5,1.12,2.5,2.5s-1.12,2.5-2.5,2.5-2.5-1.12-2.5-2.5,1.12-2.5,2.5-2.5m0-1c-1.93,0-3.5,1.57-3.5,3.5s1.57,3.5,3.5,3.5,3.5-1.57,3.5-3.5-1.57-3.5-3.5-3.5h0Z"/>
    </g>
    <g>
      <circle class="cls-1" cx="1494.5" cy="678.5" r="3"/>
      <path d="m1494.5,676c1.38,0,2.5,1.12,2.5,2.5s-1.12,2.5-2.5,2.5-2.5-1.12-2.5-2.5,1.12-2.5,2.5-2.5m0-1c-1.93,0-3.5,1.57-3.5,3.5s1.57,3.5,3.5,3.5,3.5-1.57,3.5-3.5-1.57-3.5-3.5-3.5h0Z"/>
    </g>
    <g>
      <circle class="cls-1" cx="1490.5" cy="312.5" r="3"/>
      <path d="m1490.5,310c1.38,0,2.5,1.12,2.5,2.5s-1.12,2.5-2.5,2.5-2.5-1.12-2.5-2.5,1.12-2.5,2.5-2.5m0-1c-1.93,0-3.5,1.57-3.5,3.5s1.57,3.5,3.5,3.5,3.5-1.57,3.5-3.5-1.57-3.5-3.5-3.5h0Z"/>
    </g>
    <g>
      <circle class="cls-1" cx="1227.5" cy="467.5" r="3"/>
      <path d="m1227.5,465c1.38,0,2.5,1.12,2.5,2.5s-1.12,2.5-2.5,2.5-2.5-1.12-2.5-2.5,1.12-2.5,2.5-2.5m0-1c-1.93,0-3.5,1.57-3.5,3.5s1.57,3.5,3.5,3.5,3.5-1.57,3.5-3.5-1.57-3.5-3.5-3.5h0Z"/>
    </g>
    <g>
      <circle class="cls-1" cx="1712.5" cy="508.5" r="3"/>
      <path d="m1712.5,506c1.38,0,2.5,1.12,2.5,2.5s-1.12,2.5-2.5,2.5-2.5-1.12-2.5-2.5,1.12-2.5,2.5-2.5m0-1c-1.93,0-3.5,1.57-3.5,3.5s1.57,3.5,3.5,3.5,3.5-1.57,3.5-3.5-1.57-3.5-3.5-3.5h0Z"/>
    </g>
    <g>
      <circle class="cls-1" cx="1188.5" cy="175.5" r="3"/>
      <path d="m1188.5,173c1.38,0,2.5,1.12,2.5,2.5s-1.12,2.5-2.5,2.5-2.5-1.12-2.5-2.5,1.12-2.5,2.5-2.5m0-1c-1.93,0-3.5,1.57-3.5,3.5s1.57,3.5,3.5,3.5,3.5-1.57,3.5-3.5-1.57-3.5-3.5-3.5h0Z"/>
    </g>
    <g>
      <circle class="cls-1" cx="608.5" cy="374.5" r="3"/>
      <path d="m608.5,372c1.38,0,2.5,1.12,2.5,2.5s-1.12,2.5-2.5,2.5-2.5-1.12-2.5-2.5,1.12-2.5,2.5-2.5m0-1c-1.93,0-3.5,1.57-3.5,3.5s1.57,3.5,3.5,3.5,3.5-1.57,3.5-3.5-1.57-3.5-3.5-3.5h0Z"/>
    </g>
    <g>
      <circle class="cls-1" cx="522.5" cy="781.5" r="3"/>
      <path d="m522.5,779c1.38,0,2.5,1.12,2.5,2.5s-1.12,2.5-2.5,2.5-2.5-1.12-2.5-2.5,1.12-2.5,2.5-2.5m0-1c-1.93,0-3.5,1.57-3.5,3.5s1.57,3.5,3.5,3.5,3.5-1.57,3.5-3.5-1.57-3.5-3.5-3.5h0Z"/>
    </g>
    <g>
      <circle class="cls-1" cx="1709.5" cy="806.5" r="3"/>
      <path d="m1709.5,804c1.38,0,2.5,1.12,2.5,2.5s-1.12,2.5-2.5,2.5-2.5-1.12-2.5-2.5,1.12-2.5,2.5-2.5m0-1c-1.93,0-3.5,1.57-3.5,3.5s1.57,3.5,3.5,3.5,3.5-1.57,3.5-3.5-1.57-3.5-3.5-3.5h0Z"/>
    </g>
    <g>
      <circle class="cls-1" cx="392.5" cy="134.5" r="3"/>
      <path d="m392.5,132c1.38,0,2.5,1.12,2.5,2.5s-1.12,2.5-2.5,2.5-2.5-1.12-2.5-2.5,1.12-2.5,2.5-2.5m0-1c-1.93,0-3.5,1.57-3.5,3.5s1.57,3.5,3.5,3.5,3.5-1.57,3.5-3.5-1.57-3.5-3.5-3.5h0Z"/>
    </g>
    <g>
      <circle class="cls-1" cx="239.5" cy="930.5" r="3"/>
      <path d="m239.5,928c1.38,0,2.5,1.12,2.5,2.5s-1.12,2.5-2.5,2.5-2.5-1.12-2.5-2.5,1.12-2.5,2.5-2.5m0-1c-1.93,0-3.5,1.57-3.5,3.5s1.57,3.5,3.5,3.5,3.5-1.57,3.5-3.5-1.57-3.5-3.5-3.5h0Z"/>
    </g>
    <g>
      <circle class="cls-1" cx="1432.5" cy="899.5" r="3"/>
      <path d="m1432.5,897c1.38,0,2.5,1.12,2.5,2.5s-1.12,2.5-2.5,2.5-2.5-1.12-2.5-2.5,1.12-2.5,2.5-2.5m0-1c-1.93,0-3.5,1.57-3.5,3.5s1.57,3.5,3.5,3.5,3.5-1.57,3.5-3.5-1.57-3.5-3.5-3.5h0Z"/>
    </g>
    <g>
      <circle class="cls-1" cx="1750.5" cy="137.5" r="3"/>
      <path d="m1750.5,135c1.38,0,2.5,1.12,2.5,2.5s-1.12,2.5-2.5,2.5-2.5-1.12-2.5-2.5,1.12-2.5,2.5-2.5m0-1c-1.93,0-3.5,1.57-3.5,3.5s1.57,3.5,3.5,3.5,3.5-1.57,3.5-3.5-1.57-3.5-3.5-3.5h0Z"/>
    </g>
  </g>
</svg>