<?xml version="1.0" encoding="UTF-8"?>
<svg id="Layer_2" data-name="Layer 2" xmlns="http://www.w3.org/2000/svg" viewBox="0 0 278.21 278.21">
  <defs>
    <style>
      .cls-1 {
        fill: #fff;
      }

      .cls-2 {
        fill: none;
        stroke: #fff;
        stroke-miterlimit: 10;
      }
    </style>
  </defs>
  <g id="Layer_1-2" data-name="Layer 1">
    <path class="cls-1" d="m139.11,17.26c2.49,0,4.51-2.02,4.51-4.51s-2.02-4.51-4.51-4.51-4.51,2.02-4.51,4.51,2.02,4.51,4.51,4.51Zm0-7.92c1.88,0,3.41,1.53,3.41,3.41s-1.53,3.41-3.41,3.41-3.41-1.53-3.41-3.41,1.53-3.41,3.41-3.41Z"/>
    <path class="cls-1" d="m139.66,72.74V24.23c0-.3-.25-.55-.55-.55s-.55.25-.55.55v48.51c0,.3.25.55.55.55s.55-.25.55-.55Z"/>
    <path class="cls-1" d="m72.02,31.93c.83,1.45,2.35,2.26,3.92,2.26.77,0,1.54-.19,2.25-.6,2.15-1.24,2.9-4.01,1.65-6.16-1.24-2.16-4.01-2.9-6.16-1.65-2.15,1.24-2.9,4.01-1.65,6.16Zm2.2-5.21c.54-.31,1.12-.46,1.7-.46,1.18,0,2.33.61,2.96,1.7.94,1.63.38,3.72-1.25,4.66-1.63.94-3.72.38-4.66-1.25-.94-1.63-.38-3.72,1.25-4.66Z"/>
    <path class="cls-1" d="m105.45,81.91c.1.18.29.28.48.28.09,0,.19-.02.28-.07.26-.15.35-.49.2-.75l-24.26-42.01c-.15-.26-.49-.35-.75-.2-.26.15-.35.49-.2.75l24.26,42.01Z"/>
    <path class="cls-1" d="m27.42,79.83c.71.41,1.48.6,2.25.6,1.56,0,3.08-.81,3.92-2.26,1.24-2.16.5-4.92-1.65-6.16-1.04-.6-2.26-.76-3.42-.45-1.16.31-2.14,1.06-2.74,2.1-.6,1.04-.76,2.26-.45,3.42.31,1.16,1.06,2.14,2.1,2.74Zm-.7-5.61c.46-.79,1.19-1.35,2.07-1.59.29-.08.59-.12.89-.12.59,0,1.17.15,1.7.46.79.46,1.35,1.19,1.59,2.07.24.88.11,1.8-.34,2.59-.46.79-1.19,1.35-2.07,1.59-.88.24-1.8.11-2.59-.34-.79-.46-1.35-1.19-1.59-2.07-.24-.88-.11-1.8.34-2.59Z"/>
    <path class="cls-1" d="m81.91,105.45l-42.01-24.26c-.26-.15-.6-.06-.75.2-.15.26-.06.6.2.75l42.01,24.26c.09.05.18.07.28.07.19,0,.38-.1.48-.28.15-.26.06-.6-.2-.75Z"/>
    <path class="cls-1" d="m8.23,139.11c0,2.49,2.02,4.51,4.51,4.51s4.51-2.02,4.51-4.51-2.02-4.51-4.51-4.51-4.51,2.02-4.51,4.51Zm7.92,0c0,1.88-1.53,3.41-3.41,3.41s-3.41-1.53-3.41-3.41,1.53-3.41,3.41-3.41,3.41,1.53,3.41,3.41Z"/>
    <path class="cls-1" d="m24.23,138.55c-.3,0-.55.25-.55.55s.25.55.55.55h48.51c.3,0,.55-.25.55-.55s-.25-.55-.55-.55H24.23Z"/>
    <path class="cls-1" d="m27.42,198.38c-1.04.6-1.79,1.58-2.1,2.74-.31,1.16-.15,2.38.45,3.42.6,1.04,1.58,1.79,2.74,2.1.39.1.78.16,1.18.16.78,0,1.55-.21,2.25-.61,1.04-.6,1.79-1.58,2.1-2.74.31-1.16.15-2.38-.45-3.42-1.24-2.16-4.01-2.9-6.16-1.65Zm5.55,4.79c-.24.88-.8,1.61-1.59,2.07-.79.46-1.71.58-2.59.34-.88-.24-1.61-.8-2.07-1.59-.46-.79-.58-1.71-.34-2.59.24-.88.8-1.61,1.59-2.07.53-.3,1.11-.46,1.7-.46.3,0,.59.04.89.12.88.24,1.61.8,2.07,1.59.46.79.58,1.71.34,2.59Z"/>
    <path class="cls-1" d="m81.36,171.81l-42.01,24.26c-.26.15-.35.49-.2.75.1.18.29.28.48.28.09,0,.19-.02.28-.07l42.01-24.26c.26-.15.35-.49.2-.75-.15-.26-.49-.35-.75-.2Z"/>
    <path class="cls-1" d="m78.18,244.63c-1.04-.6-2.26-.76-3.42-.45-1.16.31-2.14,1.06-2.74,2.1-1.24,2.15-.5,4.92,1.65,6.16.7.4,1.47.61,2.25.61.39,0,.79-.05,1.18-.16,1.16-.31,2.14-1.06,2.74-2.1,1.24-2.15.5-4.92-1.65-6.16Zm.7,5.61c-.46.79-1.19,1.35-2.07,1.59-.88.24-1.8.11-2.59-.34-.79-.46-1.35-1.19-1.59-2.07-.24-.88-.11-1.8.34-2.59.46-.79,1.19-1.35,2.07-1.59.29-.08.59-.12.89-.12.59,0,1.17.15,1.7.46.79.46,1.35,1.19,1.59,2.07.24.88.11,1.8-.34,2.59Z"/>
    <path class="cls-1" d="m106.2,196.1c-.26-.15-.6-.06-.75.2l-24.26,42.01c-.15.26-.06.6.2.75.09.05.18.07.28.07.19,0,.38-.1.48-.28l24.26-42.01c.15-.26.06-.6-.2-.75Z"/>
    <path class="cls-1" d="m139.11,260.95c-2.49,0-4.51,2.02-4.51,4.51s2.02,4.51,4.51,4.51,4.51-2.02,4.51-4.51-2.02-4.51-4.51-4.51Zm0,7.92c-1.88,0-3.41-1.53-3.41-3.41s1.53-3.41,3.41-3.41,3.41,1.53,3.41,3.41-1.53,3.41-3.41,3.41Z"/>
    <path class="cls-1" d="m138.55,205.47v48.51c0,.3.25.55.55.55s.55-.25.55-.55v-48.51c0-.3-.25-.55-.55-.55s-.55.25-.55.55Z"/>
    <path class="cls-1" d="m206.19,246.28c-.6-1.04-1.58-1.79-2.74-2.1-1.16-.31-2.38-.15-3.42.45-2.16,1.24-2.9,4.01-1.65,6.16.6,1.04,1.58,1.79,2.74,2.1.39.1.78.16,1.18.16.78,0,1.55-.21,2.25-.61,2.16-1.24,2.9-4.01,1.65-6.16Zm-.62,3.14c-.24.88-.8,1.61-1.59,2.07-.79.46-1.71.58-2.59.34-.88-.24-1.61-.8-2.07-1.59-.46-.79-.58-1.71-.34-2.59.24-.88.8-1.61,1.59-2.07.53-.3,1.11-.46,1.7-.46.3,0,.59.04.89.12.88.24,1.61.8,2.07,1.59.46.79.58,1.71.34,2.59Z"/>
    <path class="cls-1" d="m172.76,196.3c-.15-.26-.49-.35-.75-.2-.26.15-.35.49-.2.75l24.26,42.01c.1.18.29.28.48.28.09,0,.19-.02.28-.07.26-.15.35-.49.2-.75l-24.26-42.01Z"/>
    <path class="cls-1" d="m250.79,198.38c-2.16-1.24-4.92-.5-6.16,1.65-.6,1.04-.76,2.26-.45,3.42.31,1.16,1.06,2.14,2.1,2.74.7.4,1.47.61,2.25.61.39,0,.79-.05,1.18-.16,1.16-.31,2.14-1.06,2.74-2.1,1.24-2.15.5-4.92-1.65-6.16Zm.7,5.61c-.46.79-1.19,1.35-2.07,1.59-.88.24-1.8.11-2.59-.34-.79-.46-1.35-1.19-1.59-2.07-.24-.88-.11-1.8.34-2.59.63-1.09,1.78-1.7,2.96-1.7.58,0,1.16.15,1.7.46.79.46,1.35,1.19,1.59,2.07.24.88.11,1.8-.34,2.59Z"/>
    <path class="cls-1" d="m196.3,172.76l42.01,24.26c.09.05.18.07.28.07.19,0,.38-.1.48-.28.15-.26.06-.6-.2-.75l-42.01-24.26c-.26-.15-.6-.06-.75.2-.15.26-.06.6.2.75Z"/>
    <path class="cls-1" d="m260.95,139.11c0,2.49,2.02,4.51,4.51,4.51s4.51-2.02,4.51-4.51-2.02-4.51-4.51-4.51-4.51,2.02-4.51,4.51Zm7.92,0c0,1.88-1.53,3.41-3.41,3.41s-3.41-1.53-3.41-3.41,1.53-3.41,3.41-3.41,3.41,1.53,3.41,3.41Z"/>
    <path class="cls-1" d="m205.47,138.55c-.3,0-.55.25-.55.55s.25.55.55.55h48.51c.3,0,.55-.25.55-.55s-.25-.55-.55-.55h-48.51Z"/>
    <path class="cls-1" d="m248.54,80.44c.77,0,1.54-.19,2.25-.6,2.16-1.24,2.9-4.01,1.65-6.16-.6-1.04-1.58-1.79-2.74-2.1-1.16-.31-2.38-.15-3.42.45-2.16,1.24-2.9,4.01-1.65,6.16.83,1.45,2.36,2.26,3.92,2.26Zm-1.71-7.46c.53-.3,1.11-.46,1.7-.46.3,0,.59.04.89.12.88.24,1.61.8,2.07,1.59.46.79.58,1.71.34,2.59-.24.88-.8,1.61-1.59,2.07-1.63.94-3.72.38-4.66-1.25-.94-1.63-.38-3.72,1.25-4.66Z"/>
    <path class="cls-1" d="m196.58,106.48c.09,0,.19-.02.28-.07l42.01-24.26c.26-.15.35-.49.2-.75-.15-.26-.49-.35-.75-.2l-42.01,24.26c-.26.15-.35.49-.2.75.1.18.29.28.48.28Z"/>
    <path class="cls-1" d="m200.03,33.58c.71.41,1.48.6,2.25.6,1.56,0,3.08-.81,3.92-2.26,1.24-2.16.5-4.92-1.65-6.16-2.16-1.24-4.92-.5-6.16,1.65-1.24,2.16-.5,4.92,1.65,6.16Zm-.7-5.61c.63-1.09,1.78-1.7,2.96-1.7.58,0,1.16.15,1.7.46,1.63.94,2.19,3.03,1.25,4.66-.94,1.63-3.03,2.19-4.66,1.25-1.63-.94-2.19-3.03-1.25-4.66Z"/>
    <path class="cls-1" d="m172.01,82.11c.09.05.18.07.28.07.19,0,.38-.1.48-.28l24.26-42.01c.15-.26.06-.6-.2-.75-.26-.15-.6-.06-.75.2l-24.26,42.01c-.15.26-.06.6.2.75Z"/>
    <path class="cls-1" d="m121.23,75.19c.07.25.29.41.53.41.05,0,.1,0,.14-.02.29-.08.47-.38.39-.68L102.36.5c-.08-.29-.38-.47-.68-.39-.29.08-.47.38-.39.68l19.94,74.41Z"/>
    <path class="cls-1" d="m91.67,92.69c.11.11.25.16.39.16s.28-.05.39-.16c.22-.22.22-.56,0-.78l-54.47-54.47c-.22-.22-.56-.22-.78,0-.22.22-.22.56,0,.78l54.47,54.47Z"/>
    <path class="cls-1" d="m.41,102.69l74.41,19.94s.1.02.14.02c.24,0,.47-.16.53-.41.08-.29-.1-.6-.39-.68L.69,101.63c-.29-.08-.6.1-.68.39-.08.29.1.6.39.68Z"/>
    <path class="cls-1" d="m75.58,156.31c-.08-.29-.38-.47-.68-.39L.5,175.85c-.29.08-.47.38-.39.68.07.25.29.41.53.41.05,0,.1,0,.14-.02l74.41-19.94c.29-.08.47-.38.39-.68Z"/>
    <path class="cls-1" d="m92.69,185.76c-.22-.22-.56-.22-.78,0l-54.47,54.47c-.22.22-.22.56,0,.78.11.11.25.16.39.16s.28-.05.39-.16l54.47-54.47c.22-.22.22-.56,0-.78Z"/>
    <path class="cls-1" d="m122.24,202.72c-.29-.08-.6.1-.68.39l-19.94,74.41c-.08.29.1.6.39.68.05.01.1.02.14.02.24,0,.47-.16.53-.41l19.94-74.41c.08-.29-.1-.6-.39-.68Z"/>
    <path class="cls-1" d="m156.98,203.02c-.08-.29-.38-.47-.68-.39-.29.08-.47.38-.39.68l19.94,74.41c.07.25.29.41.53.41.05,0,.1,0,.14-.02.29-.08.47-.38.39-.68l-19.94-74.41Z"/>
    <path class="cls-1" d="m186.54,185.52c-.22-.22-.56-.22-.78,0-.22.22-.22.56,0,.78l54.47,54.47c.11.11.25.16.39.16s.28-.05.39-.16c.22-.22.22-.56,0-.78l-54.47-54.47Z"/>
    <path class="cls-1" d="m277.8,175.52l-74.41-19.94c-.29-.08-.6.1-.68.39-.08.29.1.6.39.68l74.41,19.94s.1.02.14.02c.24,0,.47-.16.53-.41.08-.29-.1-.6-.39-.68Z"/>
    <path class="cls-1" d="m202.63,121.9c.07.25.29.41.53.41.05,0,.1,0,.14-.02l74.41-19.94c.29-.08.47-.38.39-.68-.08-.29-.38-.47-.68-.39l-74.41,19.94c-.29.08-.47.38-.39.68Z"/>
    <path class="cls-1" d="m185.52,92.45c.11.11.25.16.39.16s.28-.05.39-.16l54.47-54.47c.22-.22.22-.56,0-.78-.22-.22-.56-.22-.78,0l-54.47,54.47c-.22.22-.22.56,0,.78Z"/>
    <path class="cls-1" d="m155.97,75.49s.1.02.14.02c.24,0,.47-.16.53-.41L176.58.7c.08-.29-.1-.6-.39-.68-.29-.08-.6.1-.68.39l-19.94,74.41c-.08.29.1.6.39.68Z"/>
    <path class="cls-1" d="m146.99,180.67c.11.11.25.16.39.16s.28-.05.39-.16c.22-.22.22-.56,0-.78l-7.73-7.73h10.94c.3,0,.55-.25.55-.55s-.25-.55-.55-.55h-10.94l7.73-7.73c.22-.22.22-.56,0-.78-.22-.22-.56-.22-.78,0l-7.73,7.73v-10.94c0-.3-.25-.55-.55-.55s-.55.25-.55.55v10.94l-7.73-7.73c-.22-.22-.56-.22-.78,0-.22.22-.22.56,0,.78l7.73,7.73h-10.94c-.3,0-.55.25-.55.55s.25.55.55.55h10.94l-7.73,7.73c-.22.22-.22.56,0,.78.11.11.25.16.39.16s.28-.05.39-.16l7.73-7.73v10.94c0,.3.25.55.55.55s.55-.25.55-.55v-10.94l7.73,7.73Z"/>
    <polygon class="cls-2" points="139 149.6 145 92.6 133 92.6 139 149.6"/>
  </g>
</svg>