<?xml version="1.0" encoding="UTF-8"?>
<svg id="Layer_2" data-name="Layer 2" xmlns="http://www.w3.org/2000/svg" viewBox="0 0 632.58 733.11">
  <defs>
    <style>
      .cls-1, .cls-2, .cls-3, .cls-4, .cls-5, .cls-6 {
        fill: none;
        stroke: #eebc70;
      }

      .cls-1, .cls-2, .cls-3, .cls-4, .cls-6 {
        stroke-linecap: round;
        stroke-linejoin: round;
      }

      .cls-7 {
        fill: #181c1e;
      }

      .cls-2 {
        stroke-dasharray: 0 0 .97 2.92;
      }

      .cls-3 {
        stroke-dasharray: 0 0 1 3;
      }

      .cls-4 {
        stroke-dasharray: 0 0 1 3;
      }

      .cls-5 {
        stroke-miterlimit: 10;
      }

      .cls-6 {
        stroke-dasharray: 0 0 1 3;
      }
    </style>
  </defs>
  <g id="Layer_1-2" data-name="Layer 1">
    <polygon class="cls-7" points="632.58 694.95 594.42 733.11 40.4 733.11 .24 692.95 0 38.16 38.16 0 592.18 0 632.34 40.15 632.58 694.95"/>
    <polygon class="cls-5" points="622.34 684.42 585.47 721.29 50.18 721.29 11.38 682.5 11.15 49.84 48.02 12.97 583.31 12.97 622.11 51.77 622.34 684.42"/>
    <g>
      <polyline class="cls-1" points="613.92 676.02 613.92 676.52 613.56 676.87"/>
      <polyline class="cls-6" points="611.44 678.99 578.07 712.36 57.69 712.36 19.97 674.65 19.74 61.61"/>
      <polyline class="cls-1" points="19.74 60.11 19.74 59.61 20.1 59.26"/>
      <line class="cls-2" x1="22.16" y1="57.19" x2="54.2" y2="25.16"/>
      <polyline class="cls-1" points="55.23 24.12 55.59 23.77 56.09 23.77"/>
      <line class="cls-4" x1="59.09" y1="23.77" x2="573.97" y2="23.77"/>
      <polyline class="cls-1" points="575.47 23.77 575.97 23.77 576.32 24.12"/>
      <polyline class="cls-3" points="578.45 26.24 613.69 61.48 613.91 674.52"/>
    </g>
  </g>
</svg>